<?xml version="1.0" encoding="UTF-8"?>
<svg version="1.1" xmlns="http://www.w3.org/2000/svg" width="500" height="500">
<path d="M0 0 C0.82757813 0.69738281 1.65515625 1.39476562 2.5078125 2.11328125 C26.74968739 22.98205123 38.13330921 52.23661271 40.54418945 83.43579102 C40.81151521 87.30646622 41 91.11776498 41 95 C42.44585649 96.14323536 43.89248799 97.28550946 45.34375 98.421875 C53.84514269 106.5222586 55.04667492 121.43066185 55.43359375 132.55078125 C55.45687747 135.13791639 55.45755552 137.72533782 55.4375 140.3125 C55.43479095 140.99776764 55.43208191 141.68303528 55.42929077 142.3890686 C55.34760707 156.1697649 53.7448359 169.48782919 51 183 C50.81808105 183.91249512 50.63616211 184.82499023 50.44873047 185.76513672 C44.5053158 214.79173295 34.28235119 252.92925805 10.22265625 272.44140625 C5.71030552 275.37801546 2.17806234 275.58461994 -3 275 C-10.33209207 271.83386933 -13.13137937 265.10688793 -15.9609375 258.09375 C-17.33856453 253.99194321 -17.78444277 250.31114465 -18 246 C-20.88228514 248.86562454 -23.73651399 251.75446029 -26.56640625 254.671875 C-34.25416231 262.55006965 -41.78898956 269.90257056 -51 276 C-51.57572754 276.38236816 -52.15145508 276.76473633 -52.74462891 277.15869141 C-72.3528529 290.01372425 -95.08587407 296.38744083 -118.375 291.75 C-144.32578903 285.34349122 -163.6616038 269.76820236 -182 251 C-183.33214339 249.66547778 -184.66522911 248.33189423 -186 247 C-186.23783203 248.12535156 -186.23783203 248.12535156 -186.48046875 249.2734375 C-188.74787299 259.21995112 -191.31856689 268.01945719 -200 274 C-203.11888678 275.55944339 -205.5454145 275.28316275 -209 275 C-213.97044849 272.68617053 -217.29485124 270.08516401 -221 266 C-221.44859375 265.54367187 -221.8971875 265.08734375 -222.359375 264.6171875 C-240.8655059 244.81761735 -248.86562758 212.99653304 -254.875 187.4375 C-255.16125244 186.22610352 -255.44750488 185.01470703 -255.74243164 183.76660156 C-258.71772808 170.64202972 -260.32459132 157.44227998 -261 144 C-261.04253906 143.175 -261.08507812 142.35 -261.12890625 141.5 C-261.51186152 126.38603187 -259.87530067 108.98471325 -249.46875 97.27734375 C-248 96 -248 96 -246 96 C-246.02356567 95.1181604 -246.02356567 95.1181604 -246.04760742 94.21850586 C-246.77871292 62.58354031 -238.24891477 34.99596182 -216.390625 11.46484375 C-165.59172402 -40.91114729 -55.7071905 -49.82805794 0 0 Z " fill="#0A7E8A" transform="translate(353,167)"/>
<path d="M0 0 C1.5753804 0.42860825 1.5753804 0.42860825 3.18258667 0.86587524 C9.01024195 2.58031188 14.7890103 4.42477731 20.56030273 6.31958008 C21.91213729 6.75987978 23.26411065 7.19975347 24.61621094 7.63923645 C27.488428 8.57346243 30.35990928 9.50990088 33.23080444 10.44818115 C40.85416501 12.93920026 48.48269529 15.4143235 56.11108398 17.88989258 C56.88347097 18.14067314 57.65585796 18.3914537 58.45165062 18.64983368 C79.63103536 25.52470064 100.870774 32.20517415 122.11369324 38.88078308 C133.5953332 42.49306653 145.05732132 46.16669735 156.51733398 49.84692383 C155.51733398 52.84692383 155.51733398 52.84692383 153.19848633 54.2980957 C152.17706543 54.79889648 151.15564453 55.29969727 150.10327148 55.81567383 C148.96108154 56.38133057 147.8188916 56.9469873 146.64208984 57.52978516 C145.39232284 58.13581082 144.14240046 58.74151614 142.89233398 59.34692383 C141.61405782 59.97468506 140.33614747 60.60319169 139.05859375 61.23242188 C135.21873925 63.11895081 131.36930319 64.98528227 127.51733398 66.84692383 C126.43726074 67.3697998 125.3571875 67.89267578 124.24438477 68.43139648 C117.68317919 71.60065824 111.10387757 74.73073522 104.51733398 77.84692383 C102.63444078 78.73998287 100.75162788 79.63321123 98.86889648 80.52661133 C94.42020272 82.63728002 89.96875908 84.74198638 85.51733398 86.84692383 C85.18733398 95.75692383 84.85733398 104.66692383 84.51733398 113.84692383 C80.37422594 112.46588781 77.04486352 111.15533591 73.26831055 109.13110352 C31.94467665 87.08489279 -20.59619235 87.48540166 -64.63500977 100.00317383 C-74.13117507 102.95266484 -82.70496514 107.26272396 -91.48266602 111.84692383 C-94.78266602 113.49692383 -98.08266602 115.14692383 -101.48266602 116.84692383 C-101.48266602 106.61692383 -101.48266602 96.38692383 -101.48266602 85.84692383 C-103.46266602 85.18692383 -105.44266602 84.52692383 -107.48266602 83.84692383 C-109.53309496 82.92576523 -111.56786842 81.96919619 -113.58813477 80.98364258 C-114.73733398 80.42612305 -115.8865332 79.86860352 -117.07055664 79.29418945 C-118.27053369 78.70782035 -119.47040306 78.12123086 -120.67016602 77.53442383 C-123.01724355 76.39130774 -125.36489367 75.2493665 -127.71313477 74.10864258 C-128.74849365 73.60292725 -129.78385254 73.09721191 -130.85058594 72.57617188 C-135.68692331 70.2450614 -140.5898788 68.05626866 -145.48266602 65.84692383 C-145.38870544 66.9720639 -145.38870544 66.9720639 -145.29284668 68.11993408 C-144.69927007 75.23841165 -144.11049207 82.35726307 -143.52690887 89.47656631 C-143.22682238 93.13539514 -142.92497501 96.79405975 -142.61889648 100.45239258 C-142.32279603 103.99228577 -142.03159121 107.53255262 -141.74357605 111.07311249 C-141.58068134 113.06050976 -141.41290369 115.04750491 -141.24499512 117.03448486 C-140.62891947 124.66824479 -140.37958743 132.1881848 -140.48266602 139.84692383 C-144.77266602 139.84692383 -149.06266602 139.84692383 -153.48266602 139.84692383 C-153.33120117 137.85395264 -153.17973633 135.86098145 -153.02368164 133.80761719 C-152.5223548 127.20608001 -152.02392775 120.60432618 -151.52690887 114.00246334 C-151.2256239 110.00169851 -150.92337755 106.00101125 -150.61889648 102.00048828 C-150.32482425 98.13624949 -150.03332654 94.27182415 -149.74357605 90.40725899 C-149.6328556 88.9364899 -149.52122416 87.46578909 -149.40864563 85.99516106 C-149.2505322 83.9276142 -149.09572663 81.8598433 -148.94165039 79.79199219 C-148.85282593 78.61728867 -148.76400146 77.44258514 -148.67248535 76.23228455 C-147.9082919 69.86749896 -147.9082919 69.86749896 -149.67724609 64.06445312 C-151.83819249 62.60716581 -154.00591194 61.46940907 -156.36938477 60.36645508 C-157.30717773 59.92495117 -158.2449707 59.48344727 -159.21118164 59.02856445 C-160.18764648 58.57674805 -161.16411133 58.12493164 -162.17016602 57.65942383 C-163.65226562 56.96429688 -163.65226562 56.96429688 -165.16430664 56.25512695 C-167.60111354 55.11324159 -170.0405676 53.97743686 -172.48266602 52.84692383 C-172.48266602 51.85692383 -172.48266602 50.86692383 -172.48266602 49.84692383 C-83.36367195 22.27795253 -83.36367195 22.27795253 -53.49536133 13.30126953 C-51.34656174 12.65515089 -49.19779757 12.00891444 -47.04907227 11.36254883 C-46.03956512 11.05898972 -45.03005798 10.7554306 -43.98995972 10.44267273 C-37.90821528 8.60534467 -31.85875868 6.68742333 -25.82250977 4.70629883 C-23.74976407 4.03806149 -21.67627258 3.37220814 -19.60238647 2.70751953 C-17.8424327 2.1327704 -16.09333505 1.52507793 -14.34521484 0.9152832 C-9.12600718 -0.75354662 -5.34242173 -1.45492444 0 0 Z " fill="#0D3A54" transform="translate(258.482666015625,41.153076171875)"/>
<path d="M0 0 C10.59149963 8.22398795 18.82789398 20.45170503 21.32421875 33.8046875 C22.2770255 51.10179469 19.69170215 66.65558593 7.94921875 80.1796875 C-2.99603609 91.58099462 -15.58418394 97.50988232 -31.41894531 98.13867188 C-47.55776862 98.45855417 -60.46252902 92.51113086 -72.09375 81.546875 C-83.34770766 69.59486551 -87.1538814 55.9783429 -86.88671875 39.91015625 C-86.30921869 24.49233067 -78.79032275 12.13221667 -67.67578125 1.8046875 C-47.56037012 -13.86324111 -20.83423369 -14.51233617 0 0 Z " fill="#FAFDFD" transform="translate(342.67578125,198.1953125)"/>
<path d="M0 0 C11.75999894 8.75865089 19.80670274 21.35586373 22 36 C22.70629204 46.46701649 21.94545068 55.17530868 18 65 C17.649375 65.88300781 17.29875 66.76601563 16.9375 67.67578125 C11.25032636 80.37318628 0.12120254 90.01899618 -12.67578125 95.22265625 C-27.50645632 100.18283161 -43.93629573 99.48817962 -57.96875 92.52734375 C-71.34776197 84.5788577 -80.66544882 73.31617789 -85.046875 58.40625 C-88.7358721 43.51312417 -86.55748978 28.40693621 -78.8125 15.3125 C-70.42382265 2.93430306 -59.32374749 -5.65761129 -44.73828125 -9.33984375 C-28.82760233 -12.14956657 -13.50258909 -9.01563908 0 0 Z " fill="#FAFDFD" transform="translate(223,198)"/>
<path d="M0 0 C-0.33 1.32 -0.66 2.64 -1 4 C-0.34 4 0.32 4 1 4 C1.33 3.34 1.66 2.68 2 2 C6.60532704 6.49767005 10.99696446 11.086536 15.19140625 15.96875 C18.30504645 19.46571091 21.65139835 22.72967735 25 26 C24.505 26.763125 24.01 27.52625 23.5 28.3125 C21.75631692 30.92363751 21.75631692 30.92363751 22 34 C21.34 34 20.68 34 20 34 C20.495 36.475 20.495 36.475 21 39 C18.4378513 40.60473003 15.87529445 42.20880182 13.3125 43.8125 C12.59126953 44.26431641 11.87003906 44.71613281 11.12695312 45.18164062 C9.71852778 46.06271036 8.30728818 46.93929976 6.89306641 47.81103516 C5.33105933 48.7920739 3.80622049 49.83202814 2.29296875 50.88671875 C0 52 0 52 -2.2734375 52 C-6.35999929 50.5012037 -9.92537312 48.27280832 -13.625 46 C-15.13650746 45.08084006 -16.64947105 44.16406923 -18.1640625 43.25 C-18.82873535 42.84265625 -19.4934082 42.4353125 -20.17822266 42.015625 C-22.13055598 40.8532919 -22.13055598 40.8532919 -25 40 C-24.39414062 40.57443848 -23.78828125 41.14887695 -23.1640625 41.74072266 C-20.91559085 43.88671589 -18.68110859 46.04608805 -16.45507812 48.21533203 C-15.01682103 49.60870392 -13.56315819 50.98611636 -12.109375 52.36328125 C-11.20703125 53.24628906 -10.3046875 54.12929688 -9.375 55.0390625 C-8.53710938 55.84553223 -7.69921875 56.65200195 -6.8359375 57.48291016 C-4.59930644 60.54935513 -4.62266159 62.28793343 -5 66 C-5.66 66 -6.32 66 -7 66 C-7.103125 66.78375 -7.20625 67.5675 -7.3125 68.375 C-8 71 -8 71 -11 73 C-11.99 73 -12.98 73 -14 73 C-14.495 74.485 -14.495 74.485 -15 76 C-16.32 76 -17.64 76 -19 76 C-19.07863281 76.59167969 -19.15726562 77.18335938 -19.23828125 77.79296875 C-20.2520199 80.73021151 -21.63283386 81.58799337 -24.1875 83.3125 C-24.94417969 83.84488281 -25.70085937 84.37726563 -26.48046875 84.92578125 C-29.9551878 86.40725061 -31.3721076 86.13371637 -35 85 C-38.39571708 83.22798382 -41.59746287 81.20345701 -44.8125 79.125 C-46.11864258 78.31095703 -46.11864258 78.31095703 -47.45117188 77.48046875 C-53.87083471 73.38749588 -53.87083471 73.38749588 -55 70 C-57.50447516 68.78130071 -57.50447516 68.78130071 -60 68 C-57.55483843 57.87657407 -49.57152908 49.07249689 -40.78125 43.625 C-39 43 -39 43 -36 43 C-35.67 41.68 -35.34 40.36 -35 39 C-32.03 38.505 -32.03 38.505 -29 38 C-27.40632416 33.86049284 -27.40632416 33.86049284 -27.25 29.5 C-26.89436895 25.94368953 -24.94925851 24.68802233 -22.3125 22.4296875 C-20.66186435 20.95513853 -20.66186435 20.95513853 -21 18 C-19.39526367 16.00708008 -19.39526367 16.00708008 -17.16796875 13.76953125 C-16.36939453 12.96708984 -15.57082031 12.16464844 -14.74804688 11.33789062 C-13.90306641 10.50451172 -13.05808594 9.67113281 -12.1875 8.8125 C-11.35412109 7.96751953 -10.52074219 7.12253906 -9.66210938 6.25195312 C-8.85966797 5.45337891 -8.05722656 4.65480469 -7.23046875 3.83203125 C-6.49207764 3.09702393 -5.75368652 2.3620166 -4.99291992 1.60473633 C-3 0 -3 0 0 0 Z " fill="#0A7E89" transform="translate(312,336)"/>
<path d="M0 0 C3.50220363 1.30364107 6.54157506 2.84409174 9.6875 4.85546875 C10.55117187 5.39494141 11.41484375 5.93441406 12.3046875 6.49023438 C14.10686613 7.62508454 15.9037485 8.76838762 17.6953125 9.91992188 C18.55898437 10.45552734 19.42265625 10.99113281 20.3125 11.54296875 C21.09238281 12.03821045 21.87226563 12.53345215 22.67578125 13.04370117 C25.62438714 14.25690383 26.99494292 13.98452239 30 13 C32.22427283 11.88537243 32.22427283 11.88537243 34.35546875 10.4609375 C35.14244141 9.96335937 35.92941406 9.46578125 36.74023438 8.953125 C38.38357998 7.89340972 40.0268075 6.83351129 41.66992188 5.7734375 C42.45302734 5.2784375 43.23613281 4.7834375 44.04296875 4.2734375 C44.75477295 3.81372559 45.46657715 3.35401367 46.19995117 2.88037109 C46.79396729 2.58984863 47.3879834 2.29932617 48 2 C48.99 2.495 48.99 2.495 50 3 C43.50111407 10.17914315 36.92698091 17.22695199 30 24 C30.495 24.99 30.495 24.99 31 26 C30.71887936 28.00800456 30.38932033 30.01014051 30 32 C29.0409375 32.1546875 29.0409375 32.1546875 28.0625 32.3125 C27.381875 32.539375 26.70125 32.76625 26 33 C25.67 33.99 25.34 34.98 25 36 C25.66 36.33 26.32 36.66 27 37 C25.44524309 40.81622151 22.88495171 43.17531712 20 46 C18.45044077 47.5467937 16.90241505 49.09512436 15.35546875 50.64453125 C10.5703125 55.4296875 5.78515625 60.21484375 1 65 C-3.40752537 61.30214036 -7.62479872 57.51179244 -11.6875 53.4375 C-12.59886719 52.52871094 -13.51023438 51.61992187 -14.44921875 50.68359375 C-17 48 -17 48 -19.20703125 45.22265625 C-20.80828897 42.92278494 -20.80828897 42.92278494 -23 42 C-23.33 42.66 -23.66 43.32 -24 44 C-24.66 43.34 -25.32 42.68 -26 42 C-25.75 39.4375 -25.75 39.4375 -25 37 C-24.01 36.505 -24.01 36.505 -23 36 C-22.77667849 33.67218515 -22.77667849 33.67218515 -25.3125 31.4375 C-27.81671947 28.83714702 -27.81671947 28.83714702 -31 28 C-31.4125 27.29875 -31.825 26.5975 -32.25 25.875 C-34.19391991 22.68141729 -36.4383596 20.47521837 -39.10546875 17.88671875 C-42.25338615 14.75178245 -45.11350894 11.37416306 -48 8 C-48.87785156 6.9790625 -48.87785156 6.9790625 -49.7734375 5.9375 C-51.18500084 4.29398963 -52.59290162 2.64733469 -54 1 C-47.98490463 3.00098939 -42.84579041 6.80955552 -37.59375 10.27539062 C-36.43359375 11.01112305 -36.43359375 11.01112305 -35.25 11.76171875 C-34.55390625 12.21506592 -33.8578125 12.66841309 -33.140625 13.13549805 C-30.30466205 14.28081566 -28.88985897 13.93208639 -26 13 C-23.6448832 11.77152438 -23.6448832 11.77152438 -21.34765625 10.20703125 C-20.48849609 9.65982422 -19.62933594 9.11261719 -18.74414062 8.54882812 C-16.95375807 7.38957824 -15.16986737 6.22024119 -13.39257812 5.04101562 C-6.77716276 0.86364098 -6.77716276 0.86364098 -2.37109375 1.63671875 C-1.58863281 2.08660156 -0.80617187 2.53648437 0 3 C0 2.01 0 1.02 0 0 Z M-28 33 C-27.01 33.33 -26.02 33.66 -25 34 C-26.32 34.33 -27.64 34.66 -29 35 C-28.67 34.34 -28.34 33.68 -28 33 Z " fill="#0B7E8A" transform="translate(192,335)"/>
<path d="M0 0 C5.74735917 4.31834246 10.20460101 9.62822825 12.15234375 16.6171875 C13.1166525 25.80222836 12.41637784 34.27198836 6.50390625 41.68359375 C1.27260697 47.15475609 -3.6206506 50.32012835 -11.23828125 50.85546875 C-18.62779618 50.99757481 -24.6509107 51.09013812 -30.84765625 46.6171875 C-31.87890625 45.9571875 -32.91015625 45.2971875 -33.97265625 44.6171875 C-39.82726738 39.35768794 -43.16978442 31.36981761 -43.59765625 23.6171875 C-43.13322816 15.38708972 -39.50738015 7.6415103 -33.41015625 2.0546875 C-23.624704 -5.11003888 -10.70488779 -6.30537484 0 0 Z " fill="#0F3B53" transform="translate(205.84765625,218.3828125)"/>
<path d="M0 0 C6.80828093 4.01282783 11.46886908 9.42839888 14.625 16.6875 C16.40026744 24.08444766 15.48282323 30.90500597 12.375 37.8125 C8.6234645 43.36709908 3.0911474 49.17392763 -3.37890625 51.421875 C-10.83499719 52.71858647 -20.21019544 53.31075806 -26.8515625 49.20703125 C-32.88441649 44.46313505 -37.06199414 40.19272171 -39.625 32.8125 C-39.93082492 30.0600757 -40.10414259 27.613246 -40.0625 24.875 C-40.05420166 24.17060791 -40.04590332 23.46621582 -40.03735352 22.74047852 C-39.78374878 14.94912745 -37.52051758 10.67900317 -32.375 5.0625 C-23.33977292 -3.23244587 -11.44894338 -5.41596723 0 0 Z " fill="#0F3A53" transform="translate(322.625,217.1875)"/>
<path d="M0 0 C-1.28015823 3.55595195 -2.7626107 6.26524879 -5.1171875 9.21484375 C-5.72433594 9.98376953 -6.33148438 10.75269531 -6.95703125 11.54492188 C-7.58996094 12.33447266 -8.22289062 13.12402344 -8.875 13.9375 C-12.78263709 18.84823156 -16.61932532 23.70813989 -20 29 C-24.70368535 24.62781247 -28.39908174 19.66998354 -32.1875 14.5 C-32.81591797 13.65824219 -33.44433594 12.81648438 -34.09179688 11.94921875 C-34.69443359 11.13066406 -35.29707031 10.31210937 -35.91796875 9.46875 C-36.46219482 8.73076172 -37.0064209 7.99277344 -37.56713867 7.23242188 C-39.06556362 4.89785078 -40.05400463 2.60198787 -41 0 C-26.14032283 -4.38546467 -15.05585915 -5.01861972 0 0 Z " fill="#F5FCFC" transform="translate(271,289)"/>
<path d="M0 0 C1.32 0 2.64 0 4 0 C4 3.3 4 6.6 4 10 C4.66 10.33 5.32 10.66 6 11 C6.625 13.5625 6.625 13.5625 7 16 C5.68 15.67 4.36 15.34 3 15 C3.06264038 15.75009338 3.12528076 16.50018677 3.18981934 17.27301025 C3.78339594 24.39148782 4.37217394 31.51033924 4.95575714 38.62964249 C5.25584363 42.28847131 5.55769101 45.94713593 5.86376953 49.60546875 C6.15986999 53.14536194 6.4510748 56.68562879 6.73908997 60.22618866 C6.90198468 62.21358593 7.06976233 64.20058108 7.2376709 66.18756104 C7.85374655 73.82132096 8.10307859 81.34126097 8 89 C3.71 89 -0.58 89 -5 89 C-4.84853516 87.00702881 -4.69707031 85.01405762 -4.54101562 82.96069336 C-4.03968878 76.35915619 -3.54126174 69.75740235 -3.04424286 63.15553951 C-2.74295788 59.15477468 -2.44071153 55.15408742 -2.13623047 51.15356445 C-1.84215823 47.28932566 -1.55066053 43.42490033 -1.26091003 39.56033516 C-1.15018958 38.08956607 -1.03855814 36.61886526 -0.92597961 35.14823723 C-0.76786618 33.08069037 -0.61306062 31.01291947 -0.45898438 28.94506836 C-0.37015991 27.77036484 -0.28133545 26.59566132 -0.18981934 25.38536072 C0.6168655 18.93685055 0.6168655 18.93685055 -1.375 13.1875 C-1.91125 12.795625 -2.4475 12.40375 -3 12 C-3.66 11.34 -4.32 10.68 -5 10 C-4.54625 9.649375 -4.0925 9.29875 -3.625 8.9375 C-1.35338666 6.22903794 -0.83201146 3.39204672 0 0 Z " fill="#F2A61C" transform="translate(110,92)"/>
<path d="M0 0 C3.23857278 1.30921027 4.60256422 2.52033613 6.8125 5.1875 C8.36311739 8.86001486 8.68645283 12.11010061 8 16 C5.77863437 20.36045847 3.56432971 23.13277421 -1 25 C-7.497296 25.94315587 -7.497296 25.94315587 -11.03515625 23.72265625 C-13.49184731 21.65943933 -15.55567988 19.88864024 -17 17 C-17.37414872 11.38776913 -17.16077934 7.85405398 -14 3 C-9.68790246 -0.93794591 -5.57609035 -0.66080291 0 0 Z " fill="#F7FBFB" transform="translate(201,239)"/>
<path d="M0 0 C3.43177746 2.0085448 6.2103492 4.4206984 8 8 C8.46646764 14.06407926 7.39891701 18.10130861 3.5 22.8125 C0.01238343 25.57352978 -3.76022695 25.28744224 -8 25 C-11.44173874 23.74244162 -13.45222961 22.62080644 -15.875 19.875 C-17.45620498 15.83414282 -17.69356453 12.28200709 -17 8 C-13.00397724 0.42133615 -8.23195549 -1.46954727 0 0 Z " fill="#F7FBFB" transform="translate(309,239)"/>
<path d="M0 0 C6.01509537 2.00098939 11.15420959 5.80955552 16.40625 9.27539062 C17.56640625 10.01112305 17.56640625 10.01112305 18.75 10.76171875 C19.44609375 11.21506592 20.1421875 11.66841309 20.859375 12.13549805 C23.69617173 13.28115238 25.10729992 12.92725823 28 12 C30.41854204 10.78685571 30.41854204 10.78685571 32.79296875 9.2421875 C33.67017578 8.69949219 34.54738281 8.15679687 35.45117188 7.59765625 C37.28730551 6.44171773 39.12324053 5.28546368 40.95898438 4.12890625 C41.83232422 3.58878906 42.70566406 3.04867188 43.60546875 2.4921875 C44.40106201 1.99058105 45.19665527 1.48897461 46.01635742 0.97216797 C46.67095947 0.65135254 47.32556152 0.33053711 48 0 C48.66 0.33 49.32 0.66 50 1 C49.45061768 1.54414551 48.90123535 2.08829102 48.33520508 2.64892578 C45.82495765 5.13826551 43.31870516 7.63159093 40.8125 10.125 C39.94818359 10.9809375 39.08386719 11.836875 38.19335938 12.71875 C33.90287305 16.99279768 29.76074699 21.25040235 26 26 C17.76671913 22.46879601 11.6933257 13.69643547 6 7 C4.85421223 5.66662751 3.70838146 4.33329198 2.5625 3 C1.716875 2.01 0.87125 1.02 0 0 Z " fill="#EBF9F9" transform="translate(226,374)"/>
<path d="M0 0 C0.66 0.33 1.32 0.66 2 1 C1.52167725 1.47308594 1.04335449 1.94617188 0.55053711 2.43359375 C-1.6565534 4.61964406 -3.85953633 6.80979129 -6.0625 9 C-6.81466797 9.74378906 -7.56683594 10.48757813 -8.34179688 11.25390625 C-13.10818371 15.99965938 -17.64681013 20.87223051 -22 26 C-25.505771 24.49837967 -27.78609447 22.47156889 -30.4765625 19.7890625 C-31.72953125 18.53996094 -31.72953125 18.53996094 -33.0078125 17.265625 C-33.87148438 16.39421875 -34.73515625 15.5228125 -35.625 14.625 C-36.49640625 13.76132812 -37.3678125 12.89765625 -38.265625 12.0078125 C-39.51472656 10.75484375 -39.51472656 10.75484375 -40.7890625 9.4765625 C-41.54912598 8.71424316 -42.30918945 7.95192383 -43.09228516 7.16650391 C-44.85330788 5.16659149 -45.95700227 3.43504375 -47 1 C-43.73136141 2.12197317 -40.89575069 3.61167264 -37.96875 5.41796875 C-37.24042969 5.86720703 -36.51210938 6.31644531 -35.76171875 6.77929688 C-34.24862464 7.72138742 -32.74080257 8.67199646 -31.23828125 9.63085938 C-30.14580078 10.29891602 -30.14580078 10.29891602 -29.03125 10.98046875 C-28.37705078 11.39192139 -27.72285156 11.80337402 -27.04882812 12.22729492 C-24.29112024 13.26735038 -22.79592415 12.86047069 -20 12 C-17.66729751 10.91366919 -17.66729751 10.91366919 -15.390625 9.53125 C-14.55402344 9.04269531 -13.71742188 8.55414063 -12.85546875 8.05078125 C-11.99566406 7.53902344 -11.13585937 7.02726562 -10.25 6.5 C-9.37472656 5.98824219 -8.49945313 5.47648437 -7.59765625 4.94921875 C-3.57398648 2.77993461 -3.57398648 2.77993461 0 0 Z " fill="#F3FCFB" transform="translate(306,337)"/>
<path d="M0 0 C6.01509537 2.00098939 11.15420959 5.80955552 16.40625 9.27539062 C17.56640625 10.01112305 17.56640625 10.01112305 18.75 10.76171875 C19.44609375 11.21506592 20.1421875 11.66841309 20.859375 12.13549805 C23.69617173 13.28115238 25.10729992 12.92725823 28 12 C30.41854204 10.78685571 30.41854204 10.78685571 32.79296875 9.2421875 C33.67017578 8.69949219 34.54738281 8.15679687 35.45117188 7.59765625 C37.28730551 6.44171773 39.12324053 5.28546368 40.95898438 4.12890625 C41.83232422 3.58878906 42.70566406 3.04867188 43.60546875 2.4921875 C44.40106201 1.99058105 45.19665527 1.48897461 46.01635742 0.97216797 C46.67095947 0.65135254 47.32556152 0.33053711 48 0 C48.66 0.33 49.32 0.66 50 1 C49.48614746 1.50861572 48.97229492 2.01723145 48.44287109 2.54125977 C46.08420435 4.87895705 43.729585 7.22069182 41.375 9.5625 C40.16263672 10.76229492 40.16263672 10.76229492 38.92578125 11.98632812 C34.3944844 16.49920507 30.08342497 21.07742459 26 26 C17.76582363 22.11053282 11.81618962 13.84094684 6 7 C4.85421223 5.66662751 3.70838146 4.33329198 2.5625 3 C1.716875 2.01 0.87125 1.02 0 0 Z " fill="#EFFAFA" transform="translate(256,408)"/>
<path d="M0 0 C6.01509537 2.00098939 11.15420959 5.80955552 16.40625 9.27539062 C17.56640625 10.01112305 17.56640625 10.01112305 18.75 10.76171875 C19.44609375 11.21506592 20.1421875 11.66841309 20.859375 12.13549805 C23.69617173 13.28115238 25.10729992 12.92725823 28 12 C30.41854204 10.78685571 30.41854204 10.78685571 32.79296875 9.2421875 C33.67017578 8.69949219 34.54738281 8.15679687 35.45117188 7.59765625 C37.28730551 6.44171773 39.12324053 5.28546368 40.95898438 4.12890625 C41.83232422 3.58878906 42.70566406 3.04867188 43.60546875 2.4921875 C44.40106201 1.99058105 45.19665527 1.48897461 46.01635742 0.97216797 C46.67095947 0.65135254 47.32556152 0.33053711 48 0 C48.66 0.33 49.32 0.66 50 1 C49.48614746 1.50861572 48.97229492 2.01723145 48.44287109 2.54125977 C46.08420435 4.87895705 43.729585 7.22069182 41.375 9.5625 C40.16263672 10.76229492 40.16263672 10.76229492 38.92578125 11.98632812 C34.3944844 16.49920507 30.08342497 21.07742459 26 26 C17.76582363 22.11053282 11.81618962 13.84094684 6 7 C4.85421223 5.66662751 3.70838146 4.33329198 2.5625 3 C1.716875 2.01 0.87125 1.02 0 0 Z " fill="#EEFAFA" transform="translate(138,336)"/>
<path d="M0 0 C6.01509537 2.00098939 11.15420959 5.80955552 16.40625 9.27539062 C17.56640625 10.01112305 17.56640625 10.01112305 18.75 10.76171875 C19.44609375 11.21506592 20.1421875 11.66841309 20.859375 12.13549805 C23.69617173 13.28115238 25.10729992 12.92725823 28 12 C30.41854204 10.78685571 30.41854204 10.78685571 32.79296875 9.2421875 C33.67017578 8.69949219 34.54738281 8.15679687 35.45117188 7.59765625 C37.28730551 6.44171773 39.12324053 5.28546368 40.95898438 4.12890625 C41.83232422 3.58878906 42.70566406 3.04867188 43.60546875 2.4921875 C44.40106201 1.99058105 45.19665527 1.48897461 46.01635742 0.97216797 C46.67095947 0.65135254 47.32556152 0.33053711 48 0 C48.66 0.33 49.32 0.66 50 1 C49.45061768 1.54414551 48.90123535 2.08829102 48.33520508 2.64892578 C45.82495765 5.13826551 43.31870516 7.63159093 40.8125 10.125 C39.94818359 10.9809375 39.08386719 11.836875 38.19335938 12.71875 C33.90287305 16.99279768 29.76074699 21.25040235 26 26 C17.76671913 22.46879601 11.6933257 13.69643547 6 7 C4.85421223 5.66662751 3.70838146 4.33329198 2.5625 3 C1.716875 2.01 0.87125 1.02 0 0 Z " fill="#EDFAFA" transform="translate(200,408)"/>
<path d="M0 0 C1.58470342 0.85162211 3.16765077 1.70651165 4.75 2.5625 C5.74773437 3.10132813 6.74546875 3.64015625 7.7734375 4.1953125 C12.03107061 6.57670051 16.15517295 9.1631893 20.2734375 11.77734375 C23.54020967 13.24224302 24.61558962 12.95622217 28 12 C30.22427283 10.88537243 30.22427283 10.88537243 32.35546875 9.4609375 C33.14244141 8.96335937 33.92941406 8.46578125 34.74023438 7.953125 C36.38357998 6.89340972 38.0268075 5.83351129 39.66992188 4.7734375 C40.84458008 4.0309375 40.84458008 4.0309375 42.04296875 3.2734375 C42.75477295 2.81372559 43.46657715 2.35401367 44.19995117 1.88037109 C44.79396729 1.58984863 45.3879834 1.29932617 46 1 C46.66 1.33 47.32 1.66 48 2 C47.50371094 2.4846875 47.00742187 2.969375 46.49609375 3.46875 C43.03777095 6.88113682 39.66693442 10.31377611 36.5 14 C32.8772636 18.21676477 28.97543355 22.11749866 25 26 C21.9518812 24.6656304 20.20206757 23.33230023 18.125 20.75 C13.93945684 15.7641442 9.29758092 11.27123039 4.62353516 6.74902344 C4.02718262 6.16411133 3.43083008 5.57919922 2.81640625 4.9765625 C2.27443604 4.45143066 1.73246582 3.92629883 1.17407227 3.38525391 C0 2 0 2 0 0 Z " fill="#EAFAFA" transform="translate(286,374)"/>
<path d="M0 0 C2.88845399 1.39528397 5.61010234 2.94715397 8.3359375 4.63671875 C9.15320313 5.13107422 9.97046875 5.62542969 10.8125 6.13476562 C12.52035525 7.16963219 14.22096433 8.21655308 15.9140625 9.27539062 C20.66728299 12.14024202 20.66728299 12.14024202 26.0234375 13.18359375 C30.4371616 11.42853023 34.27967472 8.96211518 38.25 6.375 C39.85473285 5.33395495 41.46389873 4.29970056 43.078125 3.2734375 C43.78356445 2.81372559 44.48900391 2.35401367 45.21582031 1.88037109 C45.80459961 1.58984863 46.39337891 1.29932617 47 1 C47.66 1.33 48.32 1.66 49 2 C48.28714844 2.70125 47.57429688 3.4025 46.83984375 4.125 C41.87715528 9.03214246 37.03922211 13.96220013 32.50390625 19.2734375 C30.44501641 21.63714999 28.24967462 23.81849734 26 26 C21.66746195 24.33445009 18.86442976 21.12570528 15.6875 17.875 C15.11153076 17.29186035 14.53556152 16.7087207 13.94213867 16.10791016 C3.95112062 5.92668093 3.95112062 5.92668093 0 0 Z " fill="#EDF9FA" transform="translate(313,337)"/>
<path d="M0 0 C2.89490439 1.40017926 5.63195007 2.95344444 8.37109375 4.63671875 C9.60375977 5.37825195 9.60375977 5.37825195 10.86132812 6.13476562 C12.58112275 7.1713363 14.29470863 8.21827732 16.00195312 9.27539062 C17.23655273 10.01112305 17.23655273 10.01112305 18.49609375 10.76171875 C19.24044678 11.21506592 19.9847998 11.66841309 20.75170898 12.13549805 C23.64043368 13.24625645 25.07437048 12.93802531 28 12 C30.22427283 10.88537243 30.22427283 10.88537243 32.35546875 9.4609375 C33.14244141 8.96335937 33.92941406 8.46578125 34.74023438 7.953125 C36.38357998 6.89340972 38.0268075 5.83351129 39.66992188 4.7734375 C40.84458008 4.0309375 40.84458008 4.0309375 42.04296875 3.2734375 C42.75477295 2.81372559 43.46657715 2.35401367 44.19995117 1.88037109 C44.79396729 1.58984863 45.3879834 1.29932617 46 1 C46.66 1.33 47.32 1.66 48 2 C42.07312618 8.54725688 36.11633365 15.00457293 29.77734375 21.16015625 C27.81898427 23.07744842 27.81898427 23.07744842 26 26 C21.66746195 24.33445009 18.86442976 21.12570528 15.6875 17.875 C15.11153076 17.29186035 14.53556152 16.7087207 13.94213867 16.10791016 C3.95112062 5.92668093 3.95112062 5.92668093 0 0 Z " fill="#EFFBFB" transform="translate(194,336)"/>
<path d="M0 0 C3.26863859 1.12197317 6.10424931 2.61167264 9.03125 4.41796875 C9.75957031 4.86720703 10.48789063 5.31644531 11.23828125 5.77929688 C12.75137536 6.72138742 14.25919743 7.67199646 15.76171875 8.63085938 C16.85419922 9.29891602 16.85419922 9.29891602 17.96875 9.98046875 C18.62294922 10.39192139 19.27714844 10.80337402 19.95117188 11.22729492 C22.7082457 12.26711125 24.20830611 11.86944646 27 11 C29.22427283 9.88537243 29.22427283 9.88537243 31.35546875 8.4609375 C32.14244141 7.96335937 32.92941406 7.46578125 33.74023438 6.953125 C35.38357998 5.89340972 37.0268075 4.83351129 38.66992188 3.7734375 C39.84458008 3.0309375 39.84458008 3.0309375 41.04296875 2.2734375 C41.75477295 1.81372559 42.46657715 1.35401367 43.19995117 0.88037109 C43.79396729 0.58984863 44.3879834 0.29932617 45 0 C45.66 0.33 46.32 0.66 47 1 C39.52463837 9.20593799 31.91983913 17.22047298 24 25 C15.05781642 17.64753794 6.52794879 9.61288662 0 0 Z " fill="#ECFBFB" transform="translate(169,375)"/>
<path d="M0 0 C1.32 0 2.64 0 4 0 C4 3.3 4 6.6 4 10 C4.66 10.33 5.32 10.66 6 11 C6.625 13.5625 6.625 13.5625 7 16 C5.68 15.67 4.36 15.34 3 15 C3.33 21.93 3.66 28.86 4 36 C3.34 36 2.68 36 2 36 C0.40786221 46.41664616 -0.53397745 56.83379701 -1.30224609 67.34155273 C-1.66943096 72.27776436 -2.04698342 77.13371179 -3 82 C-3.33 82 -3.66 82 -4 82 C-3.45298822 66.43845787 -2.27379831 50.93875608 -1.01635742 35.42163086 C-0.94991028 34.58984818 -0.88346313 33.75806549 -0.81500244 32.90107727 C-0.68972674 31.33470707 -0.56216166 29.76851752 -0.43182373 28.20256042 C0.75292768 20.2739482 0.75292768 20.2739482 -1.375 13.1875 C-1.91125 12.795625 -2.4475 12.40375 -3 12 C-3.66 11.34 -4.32 10.68 -5 10 C-4.54625 9.649375 -4.0925 9.29875 -3.625 8.9375 C-1.35338666 6.22903794 -0.83201146 3.39204672 0 0 Z " fill="#E0B053" transform="translate(110,92)"/>
<path d="M0 0 C-0.5259375 1.3303125 -0.5259375 1.3303125 -1.0625 2.6875 C-2.03558913 6.12574826 -1.75133504 7.61899233 -1 11 C-3 13 -3 13 -6 14 C-8.65824091 12.7711083 -11.14608591 11.49812607 -13.6875 10.0625 C-14.7403418 9.48338867 -14.7403418 9.48338867 -15.81445312 8.89257812 C-17.54795672 7.93738227 -19.27465009 6.96984614 -21 6 C-20 4 -20 4 -16.54296875 2.67578125 C-15.09373993 2.21314795 -13.64175514 1.75908229 -12.1875 1.3125 C-11.46240234 1.07466797 -10.73730469 0.83683594 -9.99023438 0.59179688 C-6.23364064 -0.58020538 -3.7522388 -1.18998829 0 0 Z " fill="#1D465F" transform="translate(106,87)"/>
<path d="M0 0 C4.90254746 1.71882142 9.18608784 4.3487726 13.625 7 C14.388125 7.45117188 15.15125 7.90234375 15.9375 8.3671875 C19.00693836 10.1873106 22.02974259 12.01982839 25 14 C21.37673261 15.2077558 20.35853631 14.54311128 17 13 C16.34 14.32 15.68 15.64 15 17 C12.86873096 14.92276313 10.74499632 12.83868836 8.625 10.75 C8.02171875 10.16347656 7.4184375 9.57695312 6.796875 8.97265625 C6.21679688 8.39902344 5.63671875 7.82539063 5.0390625 7.234375 C4.50490723 6.71069336 3.97075195 6.18701172 3.42041016 5.64746094 C1.89182628 3.87453484 0.9585213 2.12735107 0 0 Z " fill="#E5F9FA" transform="translate(259,338)"/>
<path d="M0 0 C4.18423892 3.50897269 8.19588166 7.08060535 12 11 C10.68 11 9.36 11 8 11 C7.505 10.01 7.505 10.01 7 9 C4.36 9.33 1.72 9.66 -1 10 C-1 9.34 -1 8.68 -1 8 C-1.99 8.495 -1.99 8.495 -3 9 C-4.43975598 9.07203282 -5.88282022 9.08386065 -7.32421875 9.0625 C-8.18853516 9.05476563 -9.05285156 9.04703125 -9.94335938 9.0390625 C-11.75325919 9.0132988 -13.56315515 8.9872632 -15.37304688 8.9609375 C-20.37400578 8.91651744 -25.07122017 9.13695784 -30 10 C-29 8 -29 8 -26.625 6.8125 C-21.58588769 5.68304379 -17.07965839 6.32466969 -12 7 C-10.87851562 7.14695312 -10.87851562 7.14695312 -9.734375 7.296875 C-8.15396424 7.51530576 -6.57647477 7.75477059 -5 8 C-5 7.34 -5 6.68 -5 6 C-2.525 6.495 -2.525 6.495 0 7 C0 4.69 0 2.38 0 0 Z " fill="#198087" transform="translate(268,277)"/>
<path d="M0 0 C0.66 0.33 1.32 0.66 2 1 C1.525625 2.051875 1.05125 3.10375 0.5625 4.1875 C-0.69724074 7.10915224 -1.46090474 9.85527767 -2 13 C-3.25541557 15.51083114 -4.50063488 15.87125446 -7 17 C-6.814375 17.7425 -6.62875 18.485 -6.4375 19.25 C-6.00796892 21.94990963 -6.14877026 23.44631077 -7 26 C-6.34 26.33 -5.68 26.66 -5 27 C-6.98 27.33 -8.96 27.66 -11 28 C-12.5625 26.25 -12.5625 26.25 -14 24 C-13.64237678 20.23303539 -11.66852921 18.16631003 -9.25 15.375 C-5.28045088 10.57727156 -2.51263148 5.67758074 0 0 Z " fill="#15818B" transform="translate(241,261)"/>
<path d="M0 0 C1.32 0 2.64 0 4 0 C4 3.3 4 6.6 4 10 C4.66 10.33 5.32 10.66 6 11 C6.625 13.5625 6.625 13.5625 7 16 C2.96479403 14.41037341 -1.01811282 12.71767682 -5 11 C-4.54625 10.484375 -4.0925 9.96875 -3.625 9.4375 C-1.61799617 6.42699426 -0.87268191 3.49072763 0 0 Z " fill="#264A60" transform="translate(110,92)"/>
<path d="M0 0 C0.99 0.33 1.98 0.66 3 1 C0.25 7.875 0.25 7.875 -2 9 C-6.1910291 11.83177642 -8.27888911 14.81361154 -10.59375 19.1953125 C-12.41449546 21.53193584 -14.22361749 22.10230299 -17 23 C-6.53191489 6.53191489 -6.53191489 6.53191489 0 0 Z " fill="#177D87" transform="translate(269,293)"/>
<path d="M0 0 C1.32 1.32 2.64 2.64 4 4 C3.01 4.99 2.02 5.98 1 7 C1.66 7.33 2.32 7.66 3 8 C2.34 9.32 1.68 10.64 1 12 C2.32 12.66 3.64 13.32 5 14 C1.7 14.33 -1.6 14.66 -5 15 C-5.33 13.68 -5.66 12.36 -6 11 C-6.66 10.34 -7.32 9.68 -8 9 C-7.236875 8.62875 -6.47375 8.2575 -5.6875 7.875 C-2.47956885 5.6369085 -1.5022184 3.55788567 0 0 Z " fill="#194056" transform="translate(316,254)"/>
<path d="M0 0 C0.66 0.33 1.32 0.66 2 1 C0.23304141 2.96195402 -1.53831789 4.91959627 -3.3125 6.875 C-3.81201172 7.43058594 -4.31152344 7.98617188 -4.82617188 8.55859375 C-7.1087156 11.06788023 -9.16360168 13.10906778 -12 15 C-12 14.34 -12 13.68 -12 13 C-12.66 13 -13.32 13 -14 13 C-14.33 11.68 -14.66 10.36 -15 9 C-12.54732365 7.46931512 -10.08866106 5.95031377 -7.625 4.4375 C-6.92632812 3.99986328 -6.22765625 3.56222656 -5.5078125 3.11132812 C-3.70814097 2.01249022 -1.85677657 0.99932133 0 0 Z " fill="#E6F9FA" transform="translate(240,337)"/>
<path d="M0 0 C3.46821489 1.70043546 6.86997888 3.50537479 10.25 5.375 C11.32765625 5.96023438 12.4053125 6.54546875 13.515625 7.1484375 C14.33546875 7.75945312 15.1553125 8.37046875 16 9 C16 13 16 13 14 16 C11.66266774 13.52457687 9.33081816 11.0440564 7 8.5625 C6.33226562 7.85544922 5.66453125 7.14839844 4.9765625 6.41992188 C4.34492188 5.74638672 3.71328125 5.07285156 3.0625 4.37890625 C2.47597656 3.7557251 1.88945312 3.13254395 1.28515625 2.49047852 C0 1 0 1 0 0 Z " fill="#DDF7F8" transform="translate(194,336)"/>
<path d="M0 0 C0.625 1.8125 0.625 1.8125 1 4 C0.01 5.485 0.01 5.485 -1 7 C-1.66 7 -2.32 7 -3 7 C-3.268125 7.804375 -3.53625 8.60875 -3.8125 9.4375 C-4.204375 10.283125 -4.59625 11.12875 -5 12 C-8 13 -8 13 -10.4375 12.375 C-13.55652687 10.70137583 -15.11098333 8.97883398 -17 6 C-16.67 5.01 -16.34 4.02 -16 3 C-14.02 4.98 -12.04 6.96 -10 9 C-6.78956118 7.61811547 -4.95063635 6.07578097 -2.75 3.375 C-2.22921875 2.74335938 -1.7084375 2.11171875 -1.171875 1.4609375 C-0.78515625 0.97882813 -0.3984375 0.49671875 0 0 Z " fill="#197B84" transform="translate(234,424)"/>
<path d="M0 0 C1.32 0.33 2.64 0.66 4 1 C6.01819903 9.02196569 6.33473974 16.75350517 6.3125 25 C6.32861328 26.22589844 6.34472656 27.45179688 6.36132812 28.71484375 C6.36197266 29.88144531 6.36261719 31.04804688 6.36328125 32.25 C6.36775269 33.83554688 6.36775269 33.83554688 6.37231445 35.453125 C6.24945068 36.29359375 6.12658691 37.1340625 6 38 C5.01 38.66 4.02 39.32 3 40 C3.165 38.700625 3.33 37.40125 3.5 36.0625 C4.72407248 23.16406457 4.74629094 12.18355934 0 0 Z " fill="#257D88" transform="translate(359,219)"/>
<path d="M0 0 C0.66 0.33 1.32 0.66 2 1 C-2.62 5.62 -7.24 10.24 -12 15 C-13 12 -13 12 -13 10 C-13.66 9.67 -14.32 9.34 -15 9 C-12.54732365 7.46931512 -10.08866106 5.95031377 -7.625 4.4375 C-6.92632812 3.99986328 -6.22765625 3.56222656 -5.5078125 3.11132812 C-3.70814097 2.01249022 -1.85677657 0.99932133 0 0 Z " fill="#EAFBFD" transform="translate(186,336)"/>
<path d="M0 0 C5.34201433 2.05980372 10.65431553 4.19235266 15 8 C15.90787058 11.05924874 15.5552607 12.77948794 15 16 C14.28457031 15.28328125 13.56914062 14.5665625 12.83203125 13.828125 C11.00274189 11.99819039 9.16594499 10.17690338 7.32421875 8.359375 C6.45410156 7.49828125 5.58398438 6.6371875 4.6875 5.75 C3.80449219 4.87859375 2.92148437 4.0071875 2.01171875 3.109375 C0 1 0 1 0 0 Z " fill="#E6F8F9" transform="translate(256,408)"/>
<path d="M0 0 C0 0.66 0 1.32 0 2 C-0.598125 2.268125 -1.19625 2.53625 -1.8125 2.8125 C-4.03207692 3.84461441 -4.03207692 3.84461441 -5.3125 5.5625 C-7.91350862 7.77817401 -10.6843889 7.6872065 -14 8 C-14.33 9.32 -14.66 10.64 -15 12 C-17.31 12.33 -19.62 12.66 -22 13 C-18.76710298 9.38532871 -15.08031847 7.12325747 -10.875 4.8125 C-10.24207031 4.45736328 -9.60914063 4.10222656 -8.95703125 3.73632812 C-2.27843335 0 -2.27843335 0 0 0 Z " fill="#318B98" transform="translate(174,153)"/>
<path d="M0 0 C0.66 0.33 1.32 0.66 2 1 C0.48109564 2.70801695 -1.06608547 4.39092055 -2.625 6.0625 C-3.48351562 7.00222656 -4.34203125 7.94195312 -5.2265625 8.91015625 C-8 11 -8 11 -11.3359375 10.80859375 C-12.21507812 10.54175781 -13.09421875 10.27492188 -14 10 C-14 10.66 -14 11.32 -14 12 C-15.32 11.67 -16.64 11.34 -18 11 C-17.23538452 10.55346069 -17.23538452 10.55346069 -16.45532227 10.09790039 C-14.15678336 8.75435311 -11.85962753 7.40845882 -9.5625 6.0625 C-8.76005859 5.59392578 -7.95761719 5.12535156 -7.13085938 4.64257812 C-6.36708984 4.19462891 -5.60332031 3.74667969 -4.81640625 3.28515625 C-3.75595093 2.66459351 -3.75595093 2.66459351 -2.67407227 2.03149414 C-1.03106712 1.10809195 -1.03106712 1.10809195 0 0 Z " fill="#CEF2F5" transform="translate(306,337)"/>
<path d="M0 0 C0.99 0 1.98 0 3 0 C0.61790746 5.42131405 -3.62870513 8.89003219 -8.9375 11.375 C-9.618125 11.58125 -10.29875 11.7875 -11 12 C-11.3125 9.6875 -11.3125 9.6875 -11 7 C-8.625 5.25 -8.625 5.25 -6 4 C-5.34 3.67 -4.68 3.34 -4 3 C-3.01 3.33 -2.02 3.66 -1 4 C-0.67 2.68 -0.34 1.36 0 0 Z " fill="#204153" transform="translate(211,256)"/>
<path d="M0 0 C1.98 0.99 1.98 0.99 4 2 C4 8.93 4 15.86 4 23 C3.67 23 3.34 23 3 23 C2.67 20.69 2.34 18.38 2 16 C1.34 16.33 0.68 16.66 0 17 C0 11.39 0 5.78 0 0 Z " fill="#D2BC86" transform="translate(110,105)"/>
<path d="M0 0 C3.24074808 2.35690769 5.85412743 4.90060202 8.4375 7.9375 C11.38065654 11.3905455 14.42715413 14.21143737 18 17 C16.68 17.33 15.36 17.66 14 18 C13.67 17.01 13.34 16.02 13 15 C12.38125 14.87625 11.7625 14.7525 11.125 14.625 C8.01575257 13.71051546 7.51541583 11.76728107 6 9 C4.41754725 7.24850835 4.41754725 7.24850835 3 6 C2.01 6.495 2.01 6.495 1 7 C0.67 4.69 0.34 2.38 0 0 Z " fill="#247E88" transform="translate(264,417)"/>
<path d="M0 0 C1.77433812 0.93084971 3.54435149 1.86994613 5.3125 2.8125 C6.29863281 3.33457031 7.28476562 3.85664063 8.30078125 4.39453125 C10.61665068 5.7719876 12.23611001 6.99530591 14 9 C12.68 9.99 11.36 10.98 10 12 C8.32737283 10.38113585 6.66204463 8.7547271 5 7.125 C4.071875 6.22007812 3.14375 5.31515625 2.1875 4.3828125 C0 2 0 2 0 0 Z " fill="#CCF0F3" transform="translate(286,374)"/>
<path d="M0 0 C0.66 0.33 1.32 0.66 2 1 C2 1.66 2 2.32 2 3 C3.98 3.66 5.96 4.32 8 5 C7.67 6.32 7.34 7.64 7 9 C8.32 9.33 9.64 9.66 11 10 C10.01 10.495 10.01 10.495 9 11 C7.125 10.29296875 7.125 10.29296875 5 9.1875 C4.29875 8.83042969 3.5975 8.47335937 2.875 8.10546875 C1 7 1 7 -1 5 C-0.625 2.375 -0.625 2.375 0 0 Z " fill="#264A5F" transform="translate(293,258)"/>
<path d="M0 0 C0 3.10551666 -0.5393715 4.35261084 -2 7 C-2.66 7 -3.32 7 -4 7 C-4 7.99 -4 8.98 -4 10 C-3.01 10.33 -2.02 10.66 -1 11 C-1.33 11.99 -1.66 12.98 -2 14 C-4 14 -4 14 -5.5 12.5625 C-5.995 12.046875 -6.49 11.53125 -7 11 C-7.66 10.67 -8.32 10.34 -9 10 C-7.8758824 8.70756532 -6.75067408 7.41607925 -5.625 6.125 C-4.99851562 5.40570313 -4.37203125 4.68640625 -3.7265625 3.9453125 C-2.52573166 2.5923402 -1.2791655 1.2791655 0 0 Z " fill="#19818E" transform="translate(264,386)"/>
<path d="M0 0 C0.33 0 0.66 0 1 0 C1.31389161 3.72684716 1.56847461 7.45547861 1.8125 11.1875 C1.90208984 12.24259766 1.99167969 13.29769531 2.08398438 14.38476562 C2.54208048 22.02773755 2.54208048 22.02773755 0.96630859 24.85400391 C-0.36328125 26.23828125 -0.36328125 26.23828125 -3 28 C-3.66 28 -4.32 28 -5 28 C-4.75 26.125 -4.75 26.125 -4 24 C-2.68 23.34 -1.36 22.68 0 22 C0 14.74 0 7.48 0 0 Z " fill="#3E919E" transform="translate(107,241)"/>
<path d="M0 0 C0.99 0.495 0.99 0.495 2 1 C2.33 7.93 2.66 14.86 3 22 C2.34 22 1.68 22 1 22 C0.05862745 19.17588235 -0.11725382 17.47081968 -0.09765625 14.55078125 C-0.09443359 13.70322266 -0.09121094 12.85566406 -0.08789062 11.98242188 C-0.07951172 11.10134766 -0.07113281 10.22027344 -0.0625 9.3125 C-0.05798828 8.41982422 -0.05347656 7.52714844 -0.04882812 6.60742188 C-0.03704983 4.40488013 -0.02060164 2.20247401 0 0 Z " fill="#318997" transform="translate(391,241)"/>
<path d="M0 0 C4.52615993 3.67832017 8.39424999 7.41086363 12 12 C11.01 12.495 11.01 12.495 10 13 C10 12.34 10 11.68 10 11 C7.36 11 4.72 11 2 11 C2 10.01 2 9.02 2 8 C2.66 8 3.32 8 4 8 C4 7.01 4 6.02 4 5 C3.34 5 2.68 5 2 5 C1.34 3.35 0.68 1.7 0 0 Z " fill="#1C7D87" transform="translate(290,380)"/>
<path d="M0 0 C0.66 0.33 1.32 0.66 2 1 C-1.3 4.63 -4.6 8.26 -8 12 C-8.33 10.68 -8.66 9.36 -9 8 C-9.33 7.34 -9.66 6.68 -10 6 C-8.3811004 4.96951963 -6.75467511 3.95085322 -5.125 2.9375 C-4.22007812 2.36902344 -3.31515625 1.80054688 -2.3828125 1.21484375 C-1.20332031 0.61349609 -1.20332031 0.61349609 0 0 Z " fill="#D2F3F5" transform="translate(214,375)"/>
<path d="M0 0 C1.32 0 2.64 0 4 0 C4.28571429 7.42857143 4.28571429 7.42857143 2 11 C-0.30694043 7.53958935 -0.62056512 5.09789669 -1 1 C-0.67 0.67 -0.34 0.34 0 0 Z " fill="#EFF9FA" transform="translate(110,92)"/>
<path d="M0 0 C2.97 0.33 5.94 0.66 9 1 C8 4 8 4 5.0625 5.6875 C2 7 2 7 0 7 C0.33 5.68 0.66 4.36 1 3 C0.34 3 -0.32 3 -1 3 C-0.67 2.01 -0.34 1.02 0 0 Z " fill="#284E67" transform="translate(406,90)"/>
<path d="M0 0 C2.375 0.25 2.375 0.25 5 1 C6.0625 2.6875 6.0625 2.6875 7 5 C8.31542376 7.01182457 9.6459068 9.01399663 11 11 C8 11 8 11 5.73828125 9.03125 C4.93777344 8.1959375 4.13726562 7.360625 3.3125 6.5 C2.50425781 5.6646875 1.69601563 4.829375 0.86328125 3.96875 C0.24839844 3.3190625 -0.36648437 2.669375 -1 2 C-0.67 1.34 -0.34 0.68 0 0 Z " fill="#3A919E" transform="translate(172,416)"/>
<path d="M0 0 C-0.33 1.32 -0.66 2.64 -1 4 C-1.66 4 -2.32 4 -3 4 C-3.268125 4.598125 -3.53625 5.19625 -3.8125 5.8125 C-5.02493496 8.04593283 -5.94652273 9.49938199 -8 11 C-10.1015625 10.57421875 -10.1015625 10.57421875 -12 10 C-10.38113585 8.32737283 -8.7547271 6.66204463 -7.125 5 C-6.22007812 4.071875 -5.31515625 3.14375 -4.3828125 2.1875 C-2 0 -2 0 0 0 Z " fill="#187A83" transform="translate(250,410)"/>
<path d="M0 0 C3 1 3 1 4 3 C4.66 3 5.32 3 6 3 C8.29612756 14.52164009 8.29612756 14.52164009 8 20 C7.67 20 7.34 20 7 20 C6.74605469 19.14277344 6.49210938 18.28554687 6.23046875 17.40234375 C4.43618716 11.44156558 2.62671943 5.64744678 0 0 Z " fill="#237E88" transform="translate(237,214)"/>
<path d="M0 0 C0.66 0.33 1.32 0.66 2 1 C1.60167969 1.6290625 1.20335937 2.258125 0.79296875 2.90625 C-2.4596493 8.16108792 -5.04551616 13.13654848 -7 19 C-8.31538327 14.84228506 -7.34433068 12.1120703 -6 8 C-5.34 8 -4.68 8 -4 8 C-4.20625 7.401875 -4.4125 6.80375 -4.625 6.1875 C-5 4 -5 4 -3 1 C-2.01 0.67 -1.02 0.34 0 0 Z " fill="#1D7F86" transform="translate(265,209)"/>
<path d="M0 0 C0.66 0.33 1.32 0.66 2 1 C0.25 4 0.25 4 -2 7 C-3.32 7 -4.64 7 -6 7 C-6.33 8.32 -6.66 9.64 -7 11 C-7.66 11 -8.32 11 -9 11 C-9 11.66 -9 12.32 -9 13 C-10.32 12.67 -11.64 12.34 -13 12 C-8.84792208 7.7373638 -4.63678779 3.73204871 0 0 Z " fill="#368F9C" transform="translate(150,166)"/>
<path d="M0 0 C0.33 0.66 0.66 1.32 1 2 C0.0625 4.625 0.0625 4.625 -1 7 C-1.66 7 -2.32 7 -3 7 C-3.309375 7.94875 -3.61875 8.8975 -3.9375 9.875 C-5 13 -5 13 -6 15 C-6.66 15 -7.32 15 -8 15 C-4.96774194 5.12903226 -4.96774194 5.12903226 -2 1 C-1.34 0.67 -0.68 0.34 0 0 Z " fill="#268490" transform="translate(123,198)"/>
<path d="M0 0 C-1.32 0.33 -2.64 0.66 -4 1 C-4.33 2.32 -4.66 3.64 -5 5 C-7.64 5.33 -10.28 5.66 -13 6 C-13 5.34 -13 4.68 -13 4 C-13.66 3.67 -14.32 3.34 -15 3 C-12.87790224 2.30359327 -10.75221473 1.61811643 -8.625 0.9375 C-6.84996094 0.36322266 -6.84996094 0.36322266 -5.0390625 -0.22265625 C-2 -1 -2 -1 0 0 Z " fill="#2E546B" transform="translate(150,73)"/>
<path d="M0 0 C0 1.32 0 2.64 0 4 C-0.61875 4.268125 -1.2375 4.53625 -1.875 4.8125 C-4.2995233 5.95556848 -4.2995233 5.95556848 -6 9 C-6.66 8.34 -7.32 7.68 -8 7 C-7.8125 4.5 -7.8125 4.5 -7 2 C-4 0 -4 0 0 0 Z " fill="#168593" transform="translate(174,370)"/>
<path d="M0 0 C3.19624262 1.53837846 6.21605574 3.28866532 9.25 5.125 C10.14203125 5.66382813 11.0340625 6.20265625 11.953125 6.7578125 C12.96632813 7.37269531 12.96632813 7.37269531 14 8 C13.01 8.495 13.01 8.495 12 9 C11.34 8.67 10.68 8.34 10 8 C9.67 8.99 9.34 9.98 9 11 C7.87278564 9.73113036 6.74831342 8.45982438 5.625 7.1875 C4.99851562 6.47980469 4.37203125 5.77210938 3.7265625 5.04296875 C2 3 2 3 0 0 Z " fill="#CFF3F5" transform="translate(313,337)"/>
<path d="M0 0 C0 3.52100905 -0.58328868 4.10031314 -2.8125 6.6875 C-3.59560547 7.62142578 -3.59560547 7.62142578 -4.39453125 8.57421875 C-6 10 -6 10 -9 10 C-9 10.66 -9 11.32 -9 12 C-10.8125 12.625 -10.8125 12.625 -13 13 C-13.99 12.34 -14.98 11.68 -16 11 C-15.01 10.649375 -14.02 10.29875 -13 9.9375 C-7.83897355 7.75722964 -3.92157826 3.92157826 0 0 Z " fill="#DCE9EE" transform="translate(333,257)"/>
<path d="M0 0 C2.64 0.66 5.28 1.32 8 2 C8 2.33 8 2.66 8 3 C6.1746875 3.0928125 6.1746875 3.0928125 4.3125 3.1875 C-0.18678257 3.72900657 -2.09482039 5.49669518 -5 9 C-5.66 9.66 -6.32 10.32 -7 11 C-6.8125 8.1875 -6.8125 8.1875 -6 5 C-3.5 3.25 -3.5 3.25 -1 2 C-0.67 1.34 -0.34 0.68 0 0 Z " fill="#26475A" transform="translate(299,236)"/>
<path d="M0 0 C2.9375 0.375 2.9375 0.375 6 1 C6.33 1.66 6.66 2.32 7 3 C9.02463255 3.65213292 9.02463255 3.65213292 11 4 C11 3.34 11 2.68 11 2 C12.65 2 14.3 2 16 2 C14.375 4.0625 14.375 4.0625 12 6 C7.02970798 6 3.88391632 3.95917434 0 1 C0 0.67 0 0.34 0 0 Z " fill="#268388" transform="translate(215,416)"/>
<path d="M0 0 C0.33 0.99 0.66 1.98 1 3 C5.29 3 9.58 3 14 3 C14 3.33 14 3.66 14 4 C-2.8929385 4.3690205 -2.8929385 4.3690205 -10 2 C-6.68737889 1.14303932 -3.37992169 0.53771481 0 0 Z " fill="#CEEDEF" transform="translate(303,292)"/>
<path d="M0 0 C1.9375 0.5625 1.9375 0.5625 4 2 C4.75 5.625 4.75 5.625 5 9 C5.99 9.33 6.98 9.66 8 10 C8.33 10.99 8.66 11.98 9 13 C8.01 13 7.02 13 6 13 C4.99491199 11.21118264 3.99607264 9.41885304 3 7.625 C2.1646875 6.12839844 2.1646875 6.12839844 1.3125 4.6015625 C0 2 0 2 0 0 Z " fill="#338E9B" transform="translate(118,410)"/>
<path d="M0 0 C0.66 0.33 1.32 0.66 2 1 C-0.64 3.64 -3.28 6.28 -6 9 C-6.33 8.34 -6.66 7.68 -7 7 C-7.99 6.67 -8.98 6.34 -10 6 C-8.3811004 4.96951963 -6.75467511 3.95085322 -5.125 2.9375 C-4.22007812 2.36902344 -3.31515625 1.80054688 -2.3828125 1.21484375 C-1.20332031 0.61349609 -1.20332031 0.61349609 0 0 Z " fill="#D2F6F8" transform="translate(360,338)"/>
<path d="M0 0 C0.66 0.33 1.32 0.66 2 1 C1.85764543 2.72945653 1.71095618 4.45855654 1.5625 6.1875 C1.48128906 7.15042969 1.40007812 8.11335938 1.31640625 9.10546875 C1.02333849 11.78649602 0.57296246 14.3662986 0 17 C-0.33 17 -0.66 17 -1 17 C-1.02699725 14.72923158 -1.04639453 12.45837179 -1.0625 10.1875 C-1.07990234 8.29064453 -1.07990234 8.29064453 -1.09765625 6.35546875 C-1 3 -1 3 0 0 Z " fill="#368E9A" transform="translate(404,333)"/>
<path d="M0 0 C0.66 0.33 1.32 0.66 2 1 C1.525625 2.051875 1.05125 3.10375 0.5625 4.1875 C-0.69724074 7.10915224 -1.46090474 9.85527767 -2 13 C-2.33 13.66 -2.66 14.32 -3 15 C-3.99 15 -4.98 15 -6 15 C-5.39644592 11.14974121 -4.23227397 8.13898841 -2.4375 4.6875 C-1.98246094 3.80449219 -1.52742187 2.92148437 -1.05859375 2.01171875 C-0.53458984 1.01591797 -0.53458984 1.01591797 0 0 Z " fill="#227E86" transform="translate(241,261)"/>
<path d="M0 0 C-2.92903058 2.33364352 -5.88568203 4.04960836 -9.25 5.6875 C-10.58804688 6.34298828 -10.58804688 6.34298828 -11.953125 7.01171875 C-12.96632812 7.50091797 -12.96632812 7.50091797 -14 8 C-14 7.34 -14 6.68 -14 6 C-13.34 6 -12.68 6 -12 6 C-11.67 5.01 -11.34 4.02 -11 3 C-7.22022332 0.68059158 -4.43915044 -0.39168975 0 0 Z " fill="#2C566A" transform="translate(174,148)"/>
<path d="M0 0 C0.99 0.66 1.98 1.32 3 2 C-3.435 2.495 -3.435 2.495 -10 3 C-9.67 2.01 -9.34 1.02 -9 0 C-5.88109857 -1.55945072 -3.34501482 -0.64552918 0 0 Z " fill="#295068" transform="translate(365,75)"/>
<path d="M0 0 C3.15069422 1.36689554 5.00891774 2.85657885 7.1875 5.5 C7.95126953 6.41265625 7.95126953 6.41265625 8.73046875 7.34375 C10 9 10 9 11 11 C8.07909997 9.69063102 6.24380538 8.24380538 4 6 C3.01 5.67 2.02 5.34 1 5 C1 4.34 1 3.68 1 3 C0.34 3 -0.32 3 -1 3 C-0.67 2.01 -0.34 1.02 0 0 Z " fill="#1E7F8B" transform="translate(253,406)"/>
<path d="M0 0 C0.75 1.625 0.75 1.625 1 4 C-1.38252013 8.58176948 -3.19910921 10.32527066 -8 12 C-4 6 -4 6 0 0 Z " fill="#29818A" transform="translate(260,304)"/>
<path d="M0 0 C2.64 0 5.28 0 8 0 C5.1485357 1.9009762 2.70289524 2.96265899 -0.5 4.125 C-1.4590625 4.47820312 -2.418125 4.83140625 -3.40625 5.1953125 C-6 6 -6 6 -9 6 C-9 5.34 -9 4.68 -9 4 C-8.43410156 3.87882812 -7.86820312 3.75765625 -7.28515625 3.6328125 C-6.18494141 3.38144531 -6.18494141 3.38144531 -5.0625 3.125 C-4.33160156 2.96257812 -3.60070312 2.80015625 -2.84765625 2.6328125 C-0.79299706 2.17038477 -0.79299706 2.17038477 0 0 Z " fill="#39909B" transform="translate(279,451)"/>
<path d="M0 0 C0.66 1.32 1.32 2.64 2 4 C-0.97 6.475 -0.97 6.475 -4 9 C-5.32 8.34 -6.64 7.68 -8 7 C-7.01 7 -6.02 7 -5 7 C-4.731875 6.401875 -4.46375 5.80375 -4.1875 5.1875 C-3.01506533 3.02775192 -1.80630718 1.64209744 0 0 Z " fill="#107980" transform="translate(287,428)"/>
<path d="M0 0 C0.66 0.33 1.32 0.66 2 1 C-0.64 3.64 -3.28 6.28 -6 9 C-6.33 8.34 -6.66 7.68 -7 7 C-7.99 6.67 -8.98 6.34 -10 6 C-8.3811004 4.96951963 -6.75467511 3.95085322 -5.125 2.9375 C-4.22007812 2.36902344 -3.31515625 1.80054688 -2.3828125 1.21484375 C-1.20332031 0.61349609 -1.20332031 0.61349609 0 0 Z " fill="#C2EFF3" transform="translate(304,408)"/>
<path d="M0 0 C0.66 0.33 1.32 0.66 2 1 C-0.64 3.64 -3.28 6.28 -6 9 C-6.33 8.34 -6.66 7.68 -7 7 C-7.99 6.67 -8.98 6.34 -10 6 C-8.3811004 4.96951963 -6.75467511 3.95085322 -5.125 2.9375 C-4.22007812 2.36902344 -3.31515625 1.80054688 -2.3828125 1.21484375 C-1.20332031 0.61349609 -1.20332031 0.61349609 0 0 Z " fill="#C1F0F4" transform="translate(274,374)"/>
<path d="M0 0 C0.66 0.33 1.32 0.66 2 1 C-0.64 3.64 -3.28 6.28 -6 9 C-6.33 8.34 -6.66 7.68 -7 7 C-7.99 6.67 -8.98 6.34 -10 6 C-8.3811004 4.96951963 -6.75467511 3.95085322 -5.125 2.9375 C-4.22007812 2.36902344 -3.31515625 1.80054688 -2.3828125 1.21484375 C-1.20332031 0.61349609 -1.20332031 0.61349609 0 0 Z " fill="#C1ECEF" transform="translate(186,336)"/>
<path d="M0 0 C0.66 0 1.32 0 2 0 C1.63287028 2.71675995 1.27255401 4.61063713 -0.3125 6.875 C-2 8 -2 8 -4.1875 7.6875 C-4.785625 7.460625 -5.38375 7.23375 -6 7 C-4.71937515 5.2925002 -3.38232443 3.62626404 -2 2 C-1.34 2 -0.68 2 0 2 C0 1.34 0 0.68 0 0 Z " fill="#218892" transform="translate(245,333)"/>
<path d="M0 0 C2.49505962 2.49505962 2.35948376 3.67328888 2.625 7.125 C2.69976562 8.03507813 2.77453125 8.94515625 2.8515625 9.8828125 C2.92503906 10.93082031 2.92503906 10.93082031 3 12 C2.01 12.66 1.02 13.32 0 14 C0 9.38 0 4.76 0 0 Z " fill="#167883" transform="translate(245,235)"/>
<path d="M0 0 C0 0.33 0 0.66 0 1 C-0.98742187 1.20496094 -1.97484375 1.40992188 -2.9921875 1.62109375 C-4.27351562 1.89050781 -5.55484375 2.15992188 -6.875 2.4375 C-8.15117187 2.70433594 -9.42734375 2.97117188 -10.7421875 3.24609375 C-13.86460244 3.8347826 -13.86460244 3.8347826 -16 5 C-16.66 4.34 -17.32 3.68 -18 3 C-11.79485526 0.86380263 -6.57315478 -0.36517527 0 0 Z " fill="#D1F0F3" transform="translate(190,188)"/>
<path d="M0 0 C4.77609498 1.64178265 8.79382904 4.26546702 13 7 C9.82773196 8.05742268 9.01062417 8.17274314 6 7 C4.296875 5.37109375 4.296875 5.37109375 2.75 3.4375 C2.22921875 2.79683594 1.7084375 2.15617187 1.171875 1.49609375 C0.78515625 1.00238281 0.3984375 0.50867188 0 0 Z " fill="#CCF5F7" transform="translate(256,408)"/>
<path d="M0 0 C0.66 0.33 1.32 0.66 2 1 C1.01 2.485 1.01 2.485 0 4 C-0.99 4 -1.98 4 -3 4 C-3.33 4.99 -3.66 5.98 -4 7 C-6.5625 8.1875 -6.5625 8.1875 -9 9 C-9.33 8.01 -9.66 7.02 -10 6 C-9.36191406 5.65066406 -8.72382813 5.30132812 -8.06640625 4.94140625 C-7.24011719 4.48636719 -6.41382813 4.03132813 -5.5625 3.5625 C-4.73878906 3.11003906 -3.91507812 2.65757812 -3.06640625 2.19140625 C-1.07691202 1.16337603 -1.07691202 1.16337603 0 0 Z " fill="#207E87" transform="translate(342,285)"/>
<path d="M0 0 C2.53449526 1.26724763 2.91309755 2.43801565 4 5 C4 5.66 4 6.32 4 7 C2.02 6.34 0.04 5.68 -2 5 C-2 3.68 -2 2.36 -2 1 C-1.34 0.67 -0.68 0.34 0 0 Z " fill="#264E68" transform="translate(335,146)"/>
<path d="M0 0 C2.96175123 0.61277612 4.38058783 1.25372522 7 3 C4.03 4.65 1.06 6.3 -2 8 C-2 7.34 -2 6.68 -2 6 C-1.34 6 -0.68 6 0 6 C0 4.02 0 2.04 0 0 Z " fill="#1C7F8B" transform="translate(318,377)"/>
<path d="M0 0 C2.31 0.66 4.62 1.32 7 2 C7 2.66 7 3.32 7 4 C8.65 4 10.3 4 12 4 C12 4.33 12 4.66 12 5 C6.34605369 5.34615998 2.96993194 4.43425238 -2 2 C-1.34 1.34 -0.68 0.68 0 0 Z " fill="#214356" transform="translate(178,264)"/>
<path d="M0 0 C1.46184058 0.22860058 2.91955419 0.48370392 4.375 0.75 C5.59316406 0.95882812 5.59316406 0.95882812 6.8359375 1.171875 C9 2 9 2 11 6 C7.37 5.01 3.74 4.02 0 3 C0 2.01 0 1.02 0 0 Z " fill="#2E8894" transform="translate(203,187)"/>
<path d="M0 0 C0 4.07746885 -1.52068051 5.83198065 -4 9 C-6.25 9.875 -6.25 9.875 -8 10 C-6.34908222 5.70761377 -3.26245434 3.1206085 0 0 Z " fill="#1C7C83" transform="translate(207,385)"/>
<path d="M0 0 C4.18423892 3.50897269 8.19588166 7.08060535 12 11 C10.68 11 9.36 11 8 11 C6 8.75 6 8.75 4 6 C3.2575 5.278125 2.515 4.55625 1.75 3.8125 C0 2 0 2 0 0 Z " fill="#277E84" transform="translate(268,277)"/>
<path d="M0 0 C0.33 0 0.66 0 1 0 C1.08078641 2.12438339 1.13909141 4.2496323 1.1875 6.375 C1.22230469 7.55835938 1.25710938 8.74171875 1.29296875 9.9609375 C1.19628906 10.96382812 1.09960938 11.96671875 1 13 C0.01 13.66 -0.98 14.32 -2 15 C-1.03644647 4.44191344 -1.03644647 4.44191344 0 0 Z " fill="#2B858C" transform="translate(364,244)"/>
<path d="M0 0 C-1.62170379 1.00533667 -3.24747237 2.00411907 -4.875 3 C-6.23238281 3.8353125 -6.23238281 3.8353125 -7.6171875 4.6875 C-10 6 -10 6 -12 6 C-12 5.01 -12 4.02 -12 3 C-10.5682384 2.30062798 -9.12932968 1.61587282 -7.6875 0.9375 C-6.48673828 0.36322266 -6.48673828 0.36322266 -5.26171875 -0.22265625 C-3 -1 -3 -1 0 0 Z " fill="#277B86" transform="translate(245,411)"/>
<path d="M0 0 C0.66 0.33 1.32 0.66 2 1 C0.02 3.31 -1.96 5.62 -4 8 C-4.33 7.34 -4.66 6.68 -5 6 C-5.99 5.67 -6.98 5.34 -8 5 C-6.71475739 4.13619741 -5.42157581 3.28419631 -4.125 2.4375 C-3.04605469 1.72400391 -3.04605469 1.72400391 -1.9453125 0.99609375 C-1.30335938 0.66738281 -0.66140625 0.33867187 0 0 Z " fill="#C9F0F1" transform="translate(240,337)"/>
<path d="M0 0 C0.99 0.33 1.98 0.66 3 1 C3.33 4.63 3.66 8.26 4 12 C3.34 12 2.68 12 2 12 C0.70756464 7.8803623 -0.26252625 4.33168317 0 0 Z " fill="#284A5B" transform="translate(289,246)"/>
<path d="M0 0 C1.32 0.33 2.64 0.66 4 1 C2.76055724 1.86941494 1.50792941 2.72005457 0.25 3.5625 C-0.44609375 4.03816406 -1.1421875 4.51382812 -1.859375 5.00390625 C-4 6 -4 6 -6.265625 5.65234375 C-6.83796875 5.43707031 -7.4103125 5.22179687 -8 5 C-7.01 4.67 -6.02 4.34 -5 4 C-5 3.34 -5 2.68 -5 2 C-3.35 2 -1.7 2 0 2 C0 1.34 0 0.68 0 0 Z " fill="#207B85" transform="translate(289,345)"/>
<path d="M0 0 C1.33895632 1.66215268 2.67130142 3.32963607 4 5 C4.5775 5.721875 5.155 6.44375 5.75 7.1875 C7 9 7 9 7 11 C5.68 11 4.36 11 3 11 C1.72746564 7.35206816 0.67170806 3.8063457 0 0 Z " fill="#288288" transform="translate(261,266)"/>
<path d="M0 0 C-2.85306797 2.32472205 -5.54074837 3.7508258 -9 5 C-9 3.68 -9 2.36 -9 1 C-5.64919071 -1.10976881 -3.77897651 -1.0497157 0 0 Z " fill="#355A74" transform="translate(365,117)"/>
<path d="M0 0 C0.66 0 1.32 0 2 0 C0.50902342 3.7952131 -1.75700849 5.61042731 -5 8 C-5.33 7.01 -5.66 6.02 -6 5 C-4.6875 3.5 -4.6875 3.5 -3 2 C-2.01 2 -1.02 2 0 2 C0 1.34 0 0.68 0 0 Z " fill="#348997" transform="translate(319,425)"/>
<path d="M0 0 C2.25133315 1.52509665 2.93983891 2.81834728 3.9375 5.3125 C-2.8125 3.6875 -2.8125 3.6875 -5.0625 0.3125 C-2.0625 -0.6875 -2.0625 -0.6875 0 0 Z " fill="#1D848F" transform="translate(187.0625,427.6875)"/>
<path d="M0 0 C0.66 0.33 1.32 0.66 2 1 C-0.31 3.31 -2.62 5.62 -5 8 C-5.33 7.34 -5.66 6.68 -6 6 C-6.66 5.67 -7.32 5.34 -8 5 C-6.71475739 4.13619741 -5.42157581 3.28419631 -4.125 2.4375 C-3.04605469 1.72400391 -3.04605469 1.72400391 -1.9453125 0.99609375 C-1.30335938 0.66738281 -0.66140625 0.33867187 0 0 Z " fill="#B9EDF2" transform="translate(248,408)"/>
<path d="M0 0 C3.99500618 1.3697164 6.80009492 3.25722422 10 6 C9.01 6.66 8.02 7.32 7 8 C5.83035398 6.8572081 4.66435444 5.71068285 3.5 4.5625 C2.8503125 3.92441406 2.200625 3.28632813 1.53125 2.62890625 C0 1 0 1 0 0 Z " fill="#C8F2F8" transform="translate(200,408)"/>
<path d="M0 0 C3.36720387 1.39332574 4.9859524 2.9789286 7 6 C3.30581799 6 1.22163822 4.71820705 -2 3 C-1.34 2.67 -0.68 2.34 0 2 C0 1.34 0 0.68 0 0 Z " fill="#26828B" transform="translate(315,341)"/>
<path d="M0 0 C0 3.61656862 -1.02130767 5.0319615 -3 8 C-3.66 8.66 -4.32 9.32 -5 10 C-5.66 9.67 -6.32 9.34 -7 9 C-5.44499019 5.18315774 -2.96404505 2.80804268 0 0 Z " fill="#E2F9FA" transform="translate(154,202)"/>
<path d="M0 0 C0.66 0 1.32 0 2 0 C1.65978036 3.17538332 0.97533396 4.02276865 -1.4375 6.25 C-4 8 -4 8 -6 8 C-6 6 -6 6 -4 4 C-3.01 4 -2.02 4 -1 4 C-0.67 2.68 -0.34 1.36 0 0 Z " fill="#368C9A" transform="translate(157,433)"/>
<path d="M0 0 C3.99500618 1.3697164 6.80009492 3.25722422 10 6 C9.34 6 8.68 6 8 6 C7.67 6.66 7.34 7.32 7 8 C5.83035398 6.8572081 4.66435444 5.71068285 3.5 4.5625 C2.8503125 3.92441406 2.200625 3.28632813 1.53125 2.62890625 C0 1 0 1 0 0 Z " fill="#C4F2F6" transform="translate(226,374)"/>
<path d="M0 0 C3.375 -0.125 3.375 -0.125 7 0 C9 2 9 2 9 5 C5.54074837 3.7508258 2.85306797 2.32472205 0 0 Z " fill="#1B8184" transform="translate(272,345)"/>
<path d="M0 0 C0.66 0.33 1.32 0.66 2 1 C-3.96583144 8.66742597 -3.96583144 8.66742597 -9 10 C-8.06409496 8.8944811 -7.12620142 7.79064547 -6.1875 6.6875 C-5.66542969 6.07261719 -5.14335937 5.45773437 -4.60546875 4.82421875 C-3.12827531 3.14575321 -1.59960869 1.56117966 0 0 Z " fill="#1F7A83" transform="translate(185,339)"/>
<path d="M0 0 C3.99500618 1.3697164 6.80009492 3.25722422 10 6 C9.34 6 8.68 6 8 6 C7.67 6.66 7.34 7.32 7 8 C5.83035398 6.8572081 4.66435444 5.71068285 3.5 4.5625 C2.8503125 3.92441406 2.200625 3.28632813 1.53125 2.62890625 C0 1 0 1 0 0 Z " fill="#C5F3F6" transform="translate(138,336)"/>
<path d="M0 0 C0.66 0 1.32 0 2 0 C1 3 1 3 -1.4375 4.75 C-2.7059375 5.36875 -2.7059375 5.36875 -4 6 C-4.66 5.67 -5.32 5.34 -6 5 C-6 3.68 -6 2.36 -6 1 C-3.03 1.495 -3.03 1.495 0 2 C0 1.34 0 0.68 0 0 Z " fill="#284B5E" transform="translate(206,262)"/>
<path d="M0 0 C4.455 0.99 4.455 0.99 9 2 C6.07735566 3.46132217 4.07536854 4.34099246 1 5 C0.67 3.35 0.34 1.7 0 0 Z " fill="#348E9D" transform="translate(304,143)"/>
<path d="M0 0 C-1.09445838 0.86657116 -2.20097781 1.71792724 -3.3125 2.5625 C-3.92738281 3.03816406 -4.54226563 3.51382812 -5.17578125 4.00390625 C-5.77777344 4.33261719 -6.37976563 4.66132813 -7 5 C-7.99 4.67 -8.98 4.34 -10 4 C-8.68 3.67 -7.36 3.34 -6 3 C-6 2.01 -6 1.02 -6 0 C-3 -1 -3 -1 0 0 Z " fill="#398C9B" transform="translate(367,436)"/>
<path d="M0 0 C0.33 1.32 0.66 2.64 1 4 C-0.1875 5.8125 -0.1875 5.8125 -2 7 C-3.32 6.67 -4.64 6.34 -6 6 C-4.02 4.02 -2.04 2.04 0 0 Z " fill="#2D878F" transform="translate(293,421)"/>
<path d="M0 0 C2.475 0.99 2.475 0.99 5 2 C4.67 2.99 4.34 3.98 4 5 C2.68 4.67 1.36 4.34 0 4 C0 2.68 0 1.36 0 0 Z " fill="#EEFDFE" transform="translate(209,414)"/>
<path d="M0 0 C2.31 1.98 4.62 3.96 7 6 C4 6 4 6 1 4 C0.34 4 -0.32 4 -1 4 C-1.33 4.66 -1.66 5.32 -2 6 C-2 3 -2 3 0 0 Z " fill="#197C80" transform="translate(243,393)"/>
<path d="M0 0 C1.32 0.33 2.64 0.66 4 1 C2.3125 2.5625 2.3125 2.5625 0 4 C-2.6875 3.8125 -2.6875 3.8125 -5 3 C-5.33 2.34 -5.66 1.68 -6 1 C-3.03 1.495 -3.03 1.495 0 2 C0 1.34 0 0.68 0 0 Z " fill="#217C86" transform="translate(220,346)"/>
<path d="M0 0 C3.08089673 2.77280706 4.68775452 5.06326356 6 9 C3.525 8.01 3.525 8.01 1 7 C0.67 4.69 0.34 2.38 0 0 Z " fill="#348C99" transform="translate(370,186)"/>
<path d="M0 0 C-0.375 1.9375 -0.375 1.9375 -1 4 C-1.99 4.495 -1.99 4.495 -3 5 C-3 4.34 -3 3.68 -3 3 C-4.32 2.67 -5.64 2.34 -7 2 C-4 0 -4 0 0 0 Z " fill="#D8F7F9" transform="translate(242,414)"/>
<path d="M0 0 C2.97 0.495 2.97 0.495 6 1 C4.71034824 2.37562854 3.37310707 3.70766393 2 5 C1.34 5 0.68 5 0 5 C0 3.35 0 1.7 0 0 Z " fill="#157D85" transform="translate(353,337)"/>
<path d="M0 0 C0 0.66 0 1.32 0 2 C1.65 2 3.3 2 5 2 C4.67 2.66 4.34 3.32 4 4 C-1.94 3.01 -1.94 3.01 -8 2 C-8 1.67 -8 1.34 -8 1 C-2.25 0 -2.25 0 0 0 Z " fill="#308792" transform="translate(267,285)"/>
<path d="M0 0 C1.875 0.1875 1.875 0.1875 4 1 C5.3125 3.375 5.3125 3.375 6 6 C5.67 6.99 5.34 7.98 5 9 C4.16094435 7.87926138 3.32892169 6.75325453 2.5 5.625 C2.0359375 4.99851562 1.571875 4.37203125 1.09375 3.7265625 C0 2 0 2 0 0 Z " fill="#D9F5F6" transform="translate(143,267)"/>
<path d="M0 0 C1.79068573 2.6860286 2.66055791 4.6626589 3.625 7.6875 C3.88539063 8.49574219 4.14578125 9.30398437 4.4140625 10.13671875 C4.60742188 10.75160156 4.80078125 11.36648437 5 12 C4.34 12 3.68 12 3 12 C2.49166409 10.75336669 1.99368855 9.50250613 1.5 8.25 C1.2215625 7.55390625 0.943125 6.8578125 0.65625 6.140625 C0 4 0 4 0 0 Z " fill="#D4F4F7" transform="translate(238,216)"/>
<path d="M0 0 C1.32 1.32 2.64 2.64 4 4 C2.02 4.66 0.04 5.32 -2 6 C-1.125 1.125 -1.125 1.125 0 0 Z " fill="#274F69" transform="translate(398,96)"/>
<path d="M0 0 C3.2542015 2.83430453 4.5206753 4.68607774 5 9 C4.01 9.495 4.01 9.495 3 10 C0.96564469 6.27034861 0 4.33094958 0 0 Z " fill="#328B98" transform="translate(114,400)"/>
<path d="M0 0 C0 3.10551666 -0.5393715 4.35261084 -2 7 C-3.32 6.67 -4.64 6.34 -6 6 C-4.02 4.02 -2.04 2.04 0 0 Z " fill="#2C898F" transform="translate(264,386)"/>
<path d="M0 0 C0.99 0.33 1.98 0.66 3 1 C1 4 1 4 -2 5 C-2.33 5.66 -2.66 6.32 -3 7 C-3.66 6.67 -4.32 6.34 -5 6 C-3.35 4.02 -1.7 2.04 0 0 Z " fill="#2B858D" transform="translate(329,380)"/>
<path d="M0 0 C0 2.62113708 -0.31292445 4.50935112 -1 7 C-2.65 7 -4.3 7 -6 7 C-4.02 4.69 -2.04 2.38 0 0 Z " fill="#348994" transform="translate(296,349)"/>
<path d="M0 0 C3.37503669 1.1858237 5.64722731 2.27573689 8 5 C7.34 5 6.68 5 6 5 C5.67 5.66 5.34 6.32 5 7 C0 1.125 0 1.125 0 0 Z " fill="#BFEAED" transform="translate(259,338)"/>
<path d="M0 0 C0.66 0.99 1.32 1.98 2 3 C0.35 4.32 -1.3 5.64 -3 7 C-3.66 6.67 -4.32 6.34 -5 6 C-3.35 4.02 -1.7 2.04 0 0 Z " fill="#38919D" transform="translate(136,179)"/>
<path d="M0 0 C2.64 0 5.28 0 8 0 C5.3144406 2.6855594 2.62378672 3.06049974 -1 4 C-0.67 2.68 -0.34 1.36 0 0 Z " fill="#2F5972" transform="translate(380,106)"/>
<path d="M0 0 C0.66 0.33 1.32 0.66 2 1 C1.6875 2.9375 1.6875 2.9375 1 5 C0.01 5.33 -0.98 5.66 -2 6 C-2.33 4.68 -2.66 3.36 -3 2 C-2.01 1.34 -1.02 0.68 0 0 Z " fill="#258993" transform="translate(308,433)"/>
<path d="M0 0 C0.99 0.33 1.98 0.66 3 1 C4.1875 3.5625 4.1875 3.5625 5 6 C2.08482708 4.92598892 0.22189824 4.22189824 -2 2 C-1.34 1.34 -0.68 0.68 0 0 Z " fill="#20808D" transform="translate(266,410)"/>
<path d="M0 0 C0.66 0.99 1.32 1.98 2 3 C1.34 3 0.68 3 0 3 C0 3.66 0 4.32 0 5 C-1.98 5.66 -3.96 6.32 -6 7 C-4.02 4.69 -2.04 2.38 0 0 Z " fill="#167780" transform="translate(276,374)"/>
<path d="M0 0 C5 2 5 2 10 4 C9.01 4.66 8.02 5.32 7 6 C3.535 4.02 3.535 4.02 0 2 C0 1.34 0 0.68 0 0 Z " fill="#D2F0F2" transform="translate(274,347)"/>
<path d="M0 0 C1.32 0.33 2.64 0.66 4 1 C3.67 1.99 3.34 2.98 3 4 C1.02 4 -0.96 4 -3 4 C-2.01 2.68 -1.02 1.36 0 0 Z " fill="#157C83" transform="translate(361,339)"/>
<path d="M0 0 C1.04449911 3.13349732 0.93423645 3.98968256 0 7 C-0.66 7 -1.32 7 -2 7 C-2 7.66 -2 8.32 -2 9 C-2.99 8.67 -3.98 8.34 -5 8 C-3.35 5.36 -1.7 2.72 0 0 Z " fill="#2B828A" transform="translate(358,266)"/>
<path d="M0 0 C0.66 0.33 1.32 0.66 2 1 C-0.35380297 4.92300495 -2.64464931 5.83857315 -7 7 C-4.66666667 4.66666667 -2.33333333 2.33333333 0 0 Z " fill="#DCF5F8" transform="translate(279,197)"/>
<path d="M0 0 C0.268125 0.61875 0.53625 1.2375 0.8125 1.875 C1.95556848 4.2995233 1.95556848 4.2995233 5 6 C4.34 7.32 3.68 8.64 3 10 C0.70366176 6.55549263 0.45983515 4.06187717 0 0 Z " fill="#CFE0E7" transform="translate(109,93)"/>
<path d="M0 0 C1.32 0 2.64 0 4 0 C4.33 0.99 4.66 1.98 5 3 C5.99 3.66 6.98 4.32 8 5 C6.68 5 5.36 5 4 5 C1.75 2.5 1.75 2.5 0 0 Z " fill="#D6F9FC" transform="translate(275,428)"/>
<path d="M0 0 C0.625 1.8125 0.625 1.8125 1 4 C0.01 5.485 0.01 5.485 -1 7 C-1.99 6.01 -2.98 5.02 -4 4 C-2.68 2.68 -1.36 1.36 0 0 Z " fill="#2B8D96" transform="translate(234,424)"/>
<path d="M0 0 C-6.75 4 -6.75 4 -9 4 C-9 3.01 -9 2.02 -9 1 C-3.375 -1.125 -3.375 -1.125 0 0 Z " fill="#2A8087" transform="translate(213,377)"/>
<path d="M0 0 C1.32 0.33 2.64 0.66 4 1 C4 2.65 4 4.3 4 6 C2 4.6875 2 4.6875 0 3 C0 2.01 0 1.02 0 0 Z " fill="#F0FEFE" transform="translate(146,342)"/>
<path d="M0 0 C0 3 0 3 -1.5 4.6875 C-1.995 5.120625 -2.49 5.55375 -3 6 C-3.99 5.67 -4.98 5.34 -6 5 C-4.02 3.35 -2.04 1.7 0 0 Z " fill="#1D3B4E" transform="translate(296,218)"/>
<path d="M0 0 C0.66 0.99 1.32 1.98 2 3 C1.01 4.98 0.02 6.96 -1 9 C-1.66 9 -2.32 9 -3 9 C-2.01 6.03 -1.02 3.06 0 0 Z " fill="#388F9A" transform="translate(118,204)"/>
<path d="M0 0 C0.33 0.66 0.66 1.32 1 2 C-0.98 4.31 -2.96 6.62 -5 9 C-5 4.61031544 -2.87194899 3.23094261 0 0 Z " fill="#D8F5F7" transform="translate(271,204)"/>
<path d="M0 0 C0.66 0.33 1.32 0.66 2 1 C0.35 2.65 -1.3 4.3 -3 6 C-3.99 5.34 -4.98 4.68 -6 4 C-4.02 2.68 -2.04 1.36 0 0 Z " fill="#D9F2F4" transform="translate(168,192)"/>
</svg>
