<?xml version="1.0" standalone="no"?>
<!DOCTYPE svg PUBLIC "-//W3C//DTD SVG 20010904//EN"
 "http://www.w3.org/TR/2001/REC-SVG-20010904/DTD/svg10.dtd">
<svg version="1.0" xmlns="http://www.w3.org/2000/svg"
 width="700.000000pt" height="700.000000pt" viewBox="0 0 700.000000 700.000000"
 preserveAspectRatio="xMidYMid meet">
<metadata>
Created by potrace 1.14, written by Peter Selinger 2001-2017
</metadata>
<g transform="translate(0.000000,700.000000) scale(0.100000,-0.100000)"
fill="#000000" stroke="none">
<path d="M3525 6433 c-63 -10 -131 -26 -145 -34 -14 -7 -345 -113 -430 -137
-19 -6 -96 -29 -170 -52 -74 -23 -142 -43 -150 -45 -25 -6 -533 -162 -700
-214 -198 -63 -332 -104 -345 -107 -10 -2 -117 -34 -287 -86 -53 -16 -99 -35
-102 -43 -7 -20 26 -43 125 -88 170 -78 193 -93 207 -128 13 -36 10 -123 -13
-404 -8 -101 -22 -284 -41 -546 l-6 -85 91 0 c101 0 92 -7 94 76 1 48 -12 309
-17 340 -3 14 -7 66 -11 115 -4 50 -8 106 -10 125 -16 164 -23 347 -15 360 7
12 61 -12 310 -133 91 -44 192 -90 225 -102 l60 -23 0 -216 c0 -119 1 -216 1
-216 1 0 88 42 194 94 106 52 242 111 304 131 111 36 347 87 461 100 33 4 62
9 65 10 10 6 233 17 343 18 155 0 289 -10 427 -33 30 -5 71 -12 90 -15 147
-25 387 -108 560 -195 94 -48 152 -72 158 -66 2 3 6 58 9 123 4 114 10 229 12
246 1 4 40 26 89 49 48 22 134 63 192 91 58 27 164 78 235 112 361 173 445
216 459 237 22 31 21 33 -26 47 -24 7 -52 16 -63 21 -11 5 -49 17 -85 28 -36
11 -146 46 -245 77 -99 31 -227 72 -285 90 -375 119 -599 191 -925 296 -573
186 -589 191 -640 182z"/>
<path d="M3477 5123 c-1 0 -46 -4 -101 -7 -54 -4 -114 -9 -132 -11 -19 -3 -51
-7 -71 -10 -63 -9 -245 -46 -293 -60 -130 -38 -163 -49 -250 -81 -322 -119
-611 -314 -784 -528 -41 -51 -118 -160 -179 -256 -29 -46 -112 -292 -133 -395
-6 -30 -25 -134 -32 -180 -4 -22 -7 -93 -7 -157 0 -81 -4 -118 -11 -118 -35 0
-127 -144 -155 -243 -19 -66 -21 -76 -35 -187 -9 -66 -9 -265 0 -344 3 -31 8
-82 11 -113 3 -32 8 -71 10 -88 3 -16 7 -48 11 -70 20 -137 119 -539 174 -705
114 -345 280 -609 454 -722 94 -60 175 -51 248 30 62 68 123 215 130 310 1 6
3 12 5 12 2 0 46 -42 96 -93 76 -77 165 -155 298 -262 100 -79 305 -188 440
-233 132 -44 191 -53 334 -54 235 0 460 71 688 219 121 78 186 132 342 285 82
81 150 146 152 144 1 -1 5 -22 8 -47 9 -67 24 -118 56 -182 40 -81 61 -109
108 -142 38 -25 47 -27 110 -23 55 4 77 11 113 36 129 89 277 307 381 562 52
129 125 366 142 459 3 19 8 37 10 41 2 4 7 21 10 38 3 17 16 81 29 144 13 62
27 136 30 163 3 28 8 61 10 75 14 79 18 157 21 345 4 361 -33 510 -157 625
-40 37 -40 37 -44 126 -8 156 -10 184 -17 191 -4 3 -7 19 -7 35 0 59 -66 308
-113 422 -44 108 -154 294 -220 373 -84 100 -194 203 -327 306 -216 169 -591
308 -945 352 -97 12 -401 26 -408 18z"/>
</g>
</svg>
